<svg width="350" height="101" viewBox="0 0 350 101" fill="none" xmlns="http://www.w3.org/2000/svg">
<path d="M20.592 29.584H17.856C17.172 32.716 14.904 34.768 11.7 34.768C10.008 34.768 8.388 34.12 7.272 32.968C5.652 31.312 5.472 29.548 5.472 24.184C5.472 18.82 5.652 17.056 7.272 15.4C8.388 14.248 10.008 13.6 11.7 13.6C14.904 13.6 17.1 15.652 17.784 18.784H20.592C19.728 13.96 16.308 11.152 11.7 11.152C9.18 11.152 6.876 12.088 5.148 13.816C2.736 16.228 2.736 18.748 2.736 24.184C2.736 29.62 2.736 32.14 5.148 34.552C6.876 36.28 9.18 37.216 11.7 37.216C16.272 37.216 19.764 34.408 20.592 29.584ZM58.9579 37L52.8739 25.372C56.1859 24.688 58.4539 22.24 58.4539 18.496C58.4539 14.068 55.3219 11.368 50.8579 11.368H41.0299V37H43.7659V25.624H49.9219L55.7539 37H58.9579ZM55.7179 18.532C55.7179 21.664 53.5939 23.212 50.6059 23.212H43.7659V13.816H50.6059C53.5939 13.816 55.7179 15.4 55.7179 18.532ZM94.9669 37V34.552H81.7909V25.3H93.0229V22.852H81.7909V13.816H94.9669V11.368H79.0549V37H94.9669ZM132.897 37L123.501 11.368H121.197L111.765 37H114.681L116.733 31.204H127.929L129.981 37H132.897ZM127.137 28.828H117.561L122.385 15.292L127.137 28.828ZM164.244 13.816V11.368H146.676V13.816H154.092V37H156.828V13.816H164.244ZM199.339 37V34.552H186.163V25.3H197.395V22.852H186.163V13.816H199.339V11.368H183.427V37H199.339ZM237.197 23.896C237.197 20.332 237.341 16.408 234.677 13.744C233.129 12.196 230.861 11.368 228.197 11.368H219.413V37H228.197C230.861 37 233.129 36.172 234.677 34.624C237.341 31.96 237.197 27.46 237.197 23.896ZM234.461 23.896C234.461 27.028 234.533 30.844 232.769 32.68C231.437 34.048 229.709 34.552 227.729 34.552H222.149V13.816H227.729C229.709 13.816 231.437 14.32 232.769 15.688C234.533 17.524 234.461 20.764 234.461 23.896ZM299.004 29.908C299.004 26.848 297.276 24.724 294.828 23.824C296.988 23.032 298.608 20.908 298.608 18.208C298.608 13.924 295.512 11.368 291.048 11.368H281.4V37H291.372C295.908 37 299.004 34.552 299.004 29.908ZM296.268 29.836C296.268 32.716 294.288 34.552 291.12 34.552H284.136V25.156H291.12C294.288 25.156 296.268 26.956 296.268 29.836ZM295.872 18.244C295.872 21.304 293.676 22.708 290.832 22.708H284.136V13.816H290.832C293.676 13.816 295.872 15.184 295.872 18.244ZM334.355 11.368H331.403L325.427 23.644L319.379 11.368H316.427L324.059 26.416V37H326.795V26.416L334.355 11.368Z" fill="black"/>
<path d="M0 101L0 95.7708L18.4814 66.4441H0.787966L0.787966 61H25.616V65.9427L7.02006 95.5415H25.616V100.986H0L0 101Z" fill="black"/>
<path d="M91.4327 85.2693H82.3353V101H76.2751V61H91.447C99.255 61 104.255 66.1719 104.255 73.1347C104.241 80.0974 99.2407 85.2693 91.4327 85.2693ZM91.1032 66.4441H82.3353V79.7536H91.1032C95.3152 79.7536 98.1805 77.3324 98.1805 73.1203C98.1805 68.9083 95.3152 66.4441 91.1032 66.4441Z" fill="black"/>
<path d="M139.241 101V83.5215H123.009V100.986H116.948V61H123.009V78.0774H139.241V61H145.301V101H139.241Z" fill="black"/>
<path d="M218.424 101L210 84.1519H202.421V101H196.361V61H211.862C219.441 61 224.269 65.8854 224.269 72.6762C224.269 78.4069 220.788 82.0602 216.289 83.2923L225.501 100.986H218.424V101ZM211.404 66.4441H202.421V78.9656H211.404C215.444 78.9656 218.195 76.659 218.195 72.7335C218.209 68.808 215.458 66.4441 211.404 66.4441Z" fill="black"/>
<path d="M238.481 101V61H244.542V95.5415H263.811V100.986H238.481V101Z" fill="black"/>
<path d="M327.507 101H311.332V61H326.891C334.298 61 338.969 65.212 338.969 71.9599C338.969 76.2865 336.275 79.3811 333.582 80.4413C336.676 81.6734 339.599 84.6533 339.599 89.7106C339.585 97.0602 334.585 101 327.507 101ZM326.375 66.4441H317.393V77.9054H326.375C330.258 77.9054 332.894 75.8854 332.894 72.1748C332.894 68.4642 330.258 66.4441 326.375 66.4441ZM326.948 83.3496H317.393V95.5415H326.948C331.16 95.5415 333.524 92.9628 333.524 89.4241C333.51 85.8854 331.16 83.3496 326.948 83.3496Z" fill="black"/>
<path d="M277.135 69.9828C277.135 69.9828 277.335 79.7679 277.579 91.4441L275.458 91.3725C275.788 87.2464 276.103 82.7479 276.146 79.0516C276.203 75.3553 275.974 72.4757 275.888 71.5731L278.267 71.5587C278.195 72.7908 278.181 72.9628 278.166 73.0917C277.966 76.5874 277.923 80.0831 278.037 83.5788C278.095 85.3267 278.195 87.0745 278.324 88.8224L278.367 89.3238C278.367 89.3238 278.367 89.3238 278.381 89.3095C281.175 86.9599 284.284 85.0258 287.464 83.3782C289.054 82.5473 290.673 81.788 292.292 81.043L294.37 80.1118L293.138 79.6533L290.673 78.6934C289.026 78.0487 287.393 77.3754 285.774 76.6734C282.522 75.2837 279.312 73.808 276.146 72.2608L277.335 70.2407C280.487 72.447 283.768 74.4527 287.163 76.2579C288.868 77.1605 290.587 78.0057 292.35 78.7937L293.668 79.3811L295.917 80.3123L301.175 82.3181L296.103 83.3209L292.307 84.1232C290.559 84.5244 288.825 84.9685 287.135 85.4986C283.754 86.5731 280.516 88.0487 277.779 90.2264L276.805 88.6791L292.636 81.2436L294.327 80.4413L294.685 80.2837C294.728 80.255 294.842 80.2264 294.828 80.1977L294.685 80.0831C294.585 79.9971 294.484 79.9255 294.37 79.8539L294.14 79.7106C293.997 79.6103 293.854 79.5244 293.696 79.4384C293.095 79.0946 292.464 78.7794 291.82 78.4928C289.226 77.361 286.404 76.6447 283.61 75.7278C281.447 75.0401 279.126 74.0659 277.307 72.8625L277.966 71.6877C283.811 74.4384 290.373 77.5186 293.138 78.8224L292.693 80.1118C286.418 78.6504 280 78.6648 280.287 78.6934L280.143 77.2464C281.82 76.8596 283.51 76.6734 285.043 76.6447C285.444 76.6447 285.745 76.6447 286.218 76.659C286.777 76.6877 287.335 76.7163 287.837 76.7736C288.868 76.8739 289.685 77.0459 290.401 77.1891C291.132 77.3467 291.762 77.49 292.278 77.5903C292.55 77.6476 292.808 77.7049 293.023 77.7622C293.252 77.8195 293.41 77.8481 293.367 77.9055C292.794 78.149 292.765 78.1777 293.453 77.8911C292.02 78.4928 290.731 79.0373 289.37 79.5817C288.037 80.0974 286.332 80.6562 285.745 80.8138C284.083 81.3009 282.607 81.6447 281.476 81.8596C280.903 81.9599 280.43 82.0459 280.043 82.1175L279.9 82.1461C279.914 82.5043 279.785 79.0373 279.842 80.4986H279.857H279.871H279.9H279.957C280.029 80.4986 280.1 80.5129 280.172 80.5129C280.301 80.5129 280.401 80.5272 280.473 80.5272C280.616 80.5272 280.645 80.5272 280.544 80.5272C280.487 80.5272 280.416 80.5129 280.287 80.5129C280.229 80.5129 280.158 80.4986 280.086 80.4986L279.971 80.4843H279.9H279.871H279.857H279.842C279.871 81.2292 279.785 78.7937 279.9 82.1748L279.842 80.4843C280.444 80.5272 281.032 80.5559 281.605 80.5416C281.891 80.5272 282.163 80.5129 282.436 80.5129L282.837 80.4843C283.023 80.4699 283.281 80.4413 283.496 80.4126C285.229 80.212 287.364 79.51 288.725 79.1805C288.897 79.1375 289.069 79.0946 289.212 79.0516C289.327 79.0086 289.269 79.0516 289.255 79.0802L289.198 79.1662C289.126 79.2665 289.054 79.3668 288.911 79.51C288.682 79.7536 288.524 79.8969 288.481 79.9542C288.438 79.9971 288.496 79.9398 288.668 79.7679C288.754 79.682 288.868 79.553 289.026 79.4098C289.169 79.2665 289.212 79.1662 289.341 79.0086L289.126 79.3095L288.711 79.7393C288.424 80.0258 288.138 80.3267 287.865 80.6132C287.307 81.1863 286.762 81.745 286.232 82.2894C285.401 83.1347 284.628 83.937 283.911 84.6676C283.639 84.9398 283.424 85.1691 283.267 85.341C283.123 85.4556 283.324 85.3696 283.367 85.3696C283.438 85.3553 283.481 85.341 283.496 85.3267C283.524 85.3123 283.453 85.3267 283.252 85.384C284.699 85.0115 285.817 84.7106 286.404 84.553L286.519 84.5244C287.55 88.0917 286.805 85.5129 287.034 86.3152H287.02L286.991 86.3295L286.948 86.3439C286.891 86.3582 286.834 86.3868 286.777 86.4012C286.662 86.4441 286.576 86.4728 286.504 86.5014C286.347 86.5587 286.261 86.5874 286.246 86.6017C286.261 86.6017 286.289 86.5874 286.418 86.5444C286.49 86.5158 286.562 86.4871 286.676 86.4585C286.734 86.4441 286.791 86.4155 286.848 86.4012L286.948 86.3725L287.006 86.3582L287.034 86.3439H287.049C286.82 85.5416 287.565 88.1347 286.533 84.553L287.049 86.3439C284.427 87.2178 283.209 88.063 282.565 88.4355C281.934 88.851 281.877 88.894 281.877 88.894L281.06 87.7049C281.06 87.7049 281.103 87.6762 281.777 87.2321C282.464 86.831 283.768 85.9284 286.619 84.9685L286.891 85.9284C286.332 84.0086 286.734 85.3983 286.619 84.9685H286.605H286.59L286.533 84.9112L286.476 84.9255L286.361 84.9685C286.289 84.9971 286.218 85.0115 286.161 85.0401C286.032 85.0831 285.946 85.1118 285.86 85.1404C285.702 85.1977 285.63 85.2264 285.63 85.2264C285.63 85.2264 285.96 85.0974 286.562 84.8969H286.576C287.135 86.831 286.734 85.4269 286.848 85.8567L286.82 85.8711L286.762 85.8854L286.648 85.914C286.562 85.9427 286.476 85.957 286.39 85.9857C286.203 86.0287 286.003 86.086 285.788 86.1433C285.33 86.2579 284.799 86.4012 284.212 86.5588C282.65 86.9599 280.774 87.447 278.625 88.0057C281.476 87.2608 281.032 87.404 278.625 87.9914C279.527 87.0602 280.817 85.7421 282.393 84.1232C282.88 83.6218 283.41 83.0774 283.969 82.5043C284.155 82.3181 284.341 82.1318 284.527 81.9312L284.814 81.6304L284.957 81.4871L284.742 81.5444C285.115 81.4012 284.756 81.659 284.728 81.7163C284.642 81.8023 284.613 81.831 284.613 81.831C284.613 81.831 284.656 81.788 284.728 81.7163C284.756 81.6734 284.799 81.6304 284.857 81.5874C284.871 81.5588 284.914 81.5301 284.928 81.5158C284.885 81.5301 284.842 81.5444 284.799 81.5588C284.427 81.659 283.911 81.788 283.281 81.8596C283.095 81.8739 282.894 81.9026 282.693 81.9169C282.378 81.9456 282.063 81.9599 281.734 81.9599C281.075 81.9742 280.387 81.9599 279.685 81.9026L279.642 80.8138C279.728 82.9914 279.671 81.4155 279.685 81.9026H279.699H279.728H279.785L279.885 81.9169C279.957 81.9169 280.029 81.9312 280.086 81.9312C280.215 81.9312 280.33 81.9456 280.43 81.9456C280.645 81.9599 280.802 81.9599 280.931 81.9599C281.175 81.9599 281.246 81.9599 281.175 81.9742C281.103 81.9742 280.874 81.9742 280.516 81.9599C280.33 81.9456 280.129 81.9456 279.885 81.9312L279.699 81.9169H279.671C279.714 82.9341 279.613 80.5416 279.628 80.7851H279.642L279.685 80.7708L279.785 80.7565C279.914 80.7278 280.043 80.7135 280.186 80.6848C281.318 80.4843 282.865 80.1691 284.656 79.6676C285.1 79.5387 285.559 79.3954 286.032 79.2665C286.289 79.1805 286.562 79.0946 286.834 78.9943C287.335 78.8224 287.865 78.6218 288.381 78.3926C287.908 78.5931 287.751 78.6361 287.837 78.6075C287.88 78.5931 287.98 78.5502 288.138 78.4785C288.195 78.4499 288.338 78.4069 288.367 78.3639C288.252 78.3353 288.123 78.3066 287.994 78.2779C287.421 78.1633 286.805 78.063 285.845 78.0487C284.183 78.0201 282.292 78.1777 280.401 78.6075L280.272 77.3181C280.544 79.8969 280.344 78.0344 280.416 78.6075H280.43H280.444L280.473 78.5931L280.544 78.5788C280.587 78.5645 280.63 78.5645 280.673 78.5502C280.759 78.5358 280.817 78.5215 280.888 78.5072C281.003 78.4785 281.089 78.4642 281.132 78.4642C281.218 78.4499 281.175 78.4642 280.989 78.5072C280.903 78.5215 280.774 78.5502 280.63 78.5931L280.516 78.6218L280.458 78.6361H280.43H280.416C280.143 75.9714 280.344 77.8911 280.272 77.3037H280.287C280.387 77.3037 280.487 77.3037 280.587 77.3037C281.017 77.3181 281.562 77.3324 282.206 77.3467C284.756 77.447 288.797 77.8195 292.951 78.7507L292.479 80.1118C294.284 81 286.017 77.1461 277.264 73.0774L278.08 71.6304C279.671 72.6619 282.049 73.6648 285.014 74.5387C287.951 75.4699 291.562 76.2149 295.043 78.2779C295.716 78.6648 296.418 79.2092 297.077 79.7106L298.095 80.4843C298.109 80.4986 298.152 80.5129 298.152 80.5272L298.08 80.5559L297.937 80.6275L297.665 80.7708L297.106 81.0573C295.917 81.6447 294.699 82.2321 293.481 82.8195C291.705 83.6791 289.9 84.553 288.109 85.4269C284.527 87.1605 280.96 88.894 277.622 90.5129L276.461 88.6648C277.565 87.7908 278.811 86.9456 280.072 86.2292C283.539 84.2808 287.307 83.0774 291.046 82.1461C291.705 81.9885 292.364 81.831 293.08 81.659C293.138 81.6447 293.109 81.6447 293.109 81.6447H293.08C292.522 81.4012 291.963 81.1719 291.39 80.9284C289.556 80.1118 287.722 79.2378 285.931 78.2923C282.335 76.4155 278.911 74.2951 275.931 72.2034L277.12 70.1834C281.418 72.2894 285.33 74.0373 288.811 75.4986C290.559 76.2292 292.192 76.8883 293.711 77.4757C294.728 77.8625 295.702 78.2206 296.633 78.5788C297.966 79.0659 299.226 79.5244 300.444 79.9685C294.169 82.6619 292.822 83.235 290.143 84.5244C287.708 85.6992 285.473 86.9169 283.481 88.2206C282.493 88.8797 281.533 89.5244 280.673 90.212L280.029 90.7278C279.742 90.9714 279.441 91.2149 279.155 91.4585C278.438 92.1032 277.736 92.7335 277.049 93.3496L276.791 93.5788L276.662 93.6934L276.605 93.7507L276.59 93.6648L276.533 92.9771C276.49 92.5186 276.447 92.0745 276.404 91.6304C276.332 90.8138 276.275 90.0258 276.203 89.2378C276.146 88.2493 276.089 87.2894 276.046 86.3725C275.731 79.0229 276.132 74.0802 276.347 71.4871L277.708 71.4728C278.009 75.3983 277.923 78.5645 277.822 81.086C277.708 83.6075 277.565 85.5129 277.45 86.9599C277.206 89.8539 277.092 90.957 277.02 91.5587L275.917 91.5158C275.673 72.3754 275.645 70.0545 275.645 70.0545L277.135 69.9828Z" fill="#E20950"/>
<path d="M170.903 71.5157C170.903 71.5157 170.788 76.5014 171.017 81.7736C171.218 87.0601 171.791 92.6189 171.934 93.8366L169.556 93.9226C169.57 93.4355 169.57 93.3639 169.57 93.3066C169.742 85.5702 169.427 77.8195 168.625 70.1117L171.031 69.8968L171.06 70.212C171.533 76.5874 172.292 82.9484 173.381 89.2664L171.189 89.4097C171.562 83.3066 171.547 77.1604 171.103 71.043L172.88 71C172.607 76.4584 172.607 81.9312 172.865 87.404C172.937 88.894 173.037 90.5415 173.152 91.8882L171.805 91.9312C171.905 88.3925 171.719 84.467 171.361 81.1862C171.318 80.7707 171.275 80.3696 171.232 79.9828C171.203 79.7822 171.175 79.596 171.16 79.424C171.117 79.1375 171.074 78.8653 171.031 78.6217C170.946 78.1633 170.874 77.8624 170.845 77.7335C170.774 77.404 170.702 77.0888 170.645 76.7879C170.659 76.659 170.53 76.7736 170.473 76.8166C170.401 76.8739 170.358 76.9455 170.329 77.0315C170.258 77.1891 170.244 77.361 170.229 77.5329C170.244 78.2063 170.287 78.7793 170.301 79.2951C170.401 81.8023 170.487 83.9083 170.559 85.5988C170.731 89.6962 170.817 91.8166 170.817 91.8166L169.384 91.8596C169.384 91.8596 169.327 90.3983 169.183 86.6303C169.112 84.6389 169.011 82.0458 168.897 78.722C168.854 77.5616 168.811 76.3295 168.768 75.0401C168.782 73.851 168.911 73.149 168.983 72.4756C169.026 72.1461 169.083 71.8023 169.255 71.4441C169.413 71.1003 169.699 70.7134 170.229 70.4985L170.43 70.4269C170.458 70.4412 170.458 70.4842 170.487 70.4985L170.573 70.6705L170.759 71.0286C170.903 71.2579 171.031 71.4871 171.218 71.7163C171.16 71.6017 171.146 71.5587 171.175 71.573C171.218 71.4871 171.275 71.8452 171.39 72.3323C171.49 72.8338 171.633 73.5215 171.805 74.3524C171.963 75.255 172.163 76.3008 172.35 77.6189C172.45 78.2493 172.55 78.9656 172.636 79.7106C172.693 80.1834 172.751 80.6705 172.808 81.1862C172.923 82.2034 173.023 83.3066 173.095 84.467C173.266 86.7879 173.338 89.3524 173.309 92.0028L171.676 92.0458C171.261 88.6361 170.659 78.9513 170.946 70.9713L173.08 70.914C173.223 72.3324 173.338 73.9513 173.438 75.4699C173.567 77.5329 173.639 79.596 173.682 81.659C173.725 84.0659 173.668 86.7879 173.524 89.553L171.132 89.7106C169.828 82.6619 169.04 74.9541 168.811 70.0974L170.917 69.9111C172.12 83.0917 171.605 91.1432 171.461 93.9942L170.086 94.0515C169.269 85.1834 169.327 79.5243 169.341 76.1003C169.398 72.6762 169.47 71.4871 169.47 71.4871L170.903 71.5157Z" fill="#E20950"/>
<path d="M159.699 78.9799C159.699 78.9799 164.011 77.7765 168.653 77.1174C173.295 76.4011 178.209 76.3151 179.04 76.3295L179.957 76.3438L180.086 78.722C173.968 79.4957 167.966 81.2435 162.378 83.8653L161.59 84.2378L160.802 81.9742C167.264 80.5415 173.94 80.1117 180.53 80.6561L180.559 82.7621L161.075 84.2664L160.802 82.7621C162.579 82.3037 164.355 81.9169 166.16 81.5874C170.544 80.7278 176.504 80.2263 179.456 80.1977L179.226 81.5587C175.043 80.0544 170.802 79.8395 167.894 80.1404C164.971 80.4269 163.309 81 163.653 80.914L163.352 79.1662C171.318 78.3925 172.865 78.2349 172.865 78.2349L172.994 79.6676C172.994 79.6676 171.92 79.7679 163.481 80.5702L163.309 79.5386C163.653 81.616 163.41 80.1117 163.481 80.5702H163.496H163.524H163.567H163.653C163.711 80.5702 163.754 80.5702 163.797 80.5558C163.868 80.5558 163.911 80.5558 163.911 80.5558C163.911 80.5558 163.782 80.5845 163.51 80.6131H163.481H163.467C163.639 81.6017 163.238 79.2808 163.281 79.51L163.338 79.4957L163.453 79.467C163.539 79.4527 163.625 79.424 163.725 79.3954C163.926 79.3524 164.14 79.2951 164.398 79.2378C164.914 79.1232 165.544 79.0086 166.289 78.8939C169.241 78.4785 174.155 78.2779 179.671 80.2407L181.92 81.0429L179.456 81.5874C179.198 81.6447 176.777 81.6876 173.338 82.0745C169.9 82.447 165.473 83.2206 161.246 84.424L160.903 82.5472C164.069 82.2177 168.94 81.702 172.966 81.2722L178.066 80.7421C178.754 80.6705 179.484 80.5988 180.344 80.5129L180.373 82.9054C177.278 82.7048 173.696 82.7048 170.287 82.9627C166.891 83.2063 163.682 83.722 161.289 84.2091L160.587 82.2034C165.458 79.8968 169.699 78.679 172.966 77.9341C176.246 77.2034 178.567 76.9598 179.842 76.8452L179.914 78.2636C172.178 78.1203 167.192 78.9942 164.169 79.5243C162.65 79.8109 161.619 80.0401 160.974 80.1833C160.315 80.3409 160.043 80.3982 160.043 80.3982L159.699 78.9799Z" fill="#E20950"/>
<path d="M36.0888 97.6906C36.0888 97.6906 57.9369 96.3868 59.9857 96.2579L61.0315 96.2006L61.1175 98.5788C53.3381 98.7937 45.573 99.51 37.8796 100.699L37.3352 100.785L37.0487 98.3782C46.0458 97.6906 55.1003 97.5903 64.0974 98.0201L63.8682 100.069C55.9169 98.5215 47.7507 98.0057 39.6418 98.5788L39.5559 97.1032L43.7536 96.9599C51.0315 96.7163 61.5902 96.2149 65.5874 95.9857L65.6877 97.4757C48.8968 99.2522 39.1977 100.269 39.1977 100.269L39.0544 98.8367C39.0544 98.8367 45.745 98.149 65.5444 96.1003L65.6304 97.3754C65.6304 97.3754 65.4298 97.404 65.043 97.4327C64.6561 97.4613 64.0974 97.49 63.3954 97.533C61.9771 97.6046 59.9427 97.7192 57.5071 97.8625C52.6361 98.106 46.1318 98.4499 39.6275 98.7794L39.5129 96.9312C43.9255 96.4585 51.361 96.3295 57.2636 96.9599C59.3983 97.1605 61.5329 97.447 63.6533 97.7908C63.8395 97.8195 64.0401 97.8482 64.2836 97.8911L64.0258 100.241C59.8854 100.112 54.871 100.054 50.043 100.155C45.2149 100.241 40.5874 100.456 37.2206 100.656L36.9771 98.5358C49.8997 96.659 57.9942 96.6877 61.0602 96.6734L61.1175 98.0917C41.8195 98.8797 36.1461 99.1089 36.1461 99.1089L36.0888 97.6906Z" fill="#E20950"/>
<path d="M279.427 89.9542C279.427 89.9542 289.613 84.9255 290.559 84.4384L295.788 81.9742L296.676 84.1948C294.499 84.9398 292.321 85.7135 290.172 86.5301C286.232 88.0344 282.335 89.6103 278.467 91.3009L277.622 89.3524L292.994 83.3926C293.94 83.0201 294.986 82.5903 295.989 82.1891C296.232 82.0888 296.476 81.9885 296.719 81.8883L297.02 81.7593C297.12 81.745 297.034 81.659 297.192 81.8023L297.221 81.8166L297.393 81.9169C297.378 81.9026 297.364 81.9026 297.335 81.9026C297.292 81.8883 297.264 81.9026 297.278 81.9026C297.321 81.9169 297.464 81.7736 297.436 81.788V81.8023C297.436 81.659 297.436 81.745 297.436 81.702L297.45 81.7163C297.479 81.745 297.564 81.7736 297.564 81.7736C297.579 81.7736 297.479 81.7736 297.421 81.8166C297.364 81.8596 297.407 81.8739 297.378 81.788L297.794 82.5186C293.782 85.0831 289.499 87.2751 286.175 88.7507C282.865 90.2264 280.559 91.0287 280.559 91.0287L280.1 89.6676C280.1 89.6676 281.676 89.1375 284.613 87.8911C287.55 86.6304 291.862 84.639 297.049 81.3152L297.665 82.6476C297.536 82.6906 297.364 82.7192 297.149 82.6619C296.948 82.6046 296.777 82.4613 296.691 82.3324C296.519 82.0745 296.519 81.9026 296.519 81.7163C296.533 81.5301 296.562 81.3295 296.777 81.086C296.991 80.8138 297.479 80.7565 297.665 80.8281C298.209 80.9714 298.41 81.4155 298.467 81.7307C298.553 82.0602 298.352 82.5616 298.138 82.7479C297.665 83.1777 297.393 83.192 297.135 83.3353C296.862 83.4642 296.576 83.5788 296.275 83.7221C295.072 84.2522 293.668 84.8682 292.178 85.5272C289.212 86.8166 285.917 88.2493 283.267 89.4097L280.244 90.7278C279.714 90.957 279.155 91.1863 278.51 91.4585L277.55 89.2522C280.53 87.8338 284.284 86.2722 287.736 84.9828C291.189 83.6934 294.341 82.7049 296.046 82.2321L296.691 83.8367C285.387 88.9513 280.057 91.2436 280.057 91.2436L279.427 89.9542Z" fill="#E20950"/>
<path d="M290.86 82.7479C290.86 82.7479 289.728 82.8912 288.553 83.0917C287.378 83.278 286.16 83.5215 285.96 83.5645C284.656 83.7651 283.352 84.0086 282.063 84.2952L281.762 81.917L282.822 81.831C283.295 81.788 283.754 81.7307 284.212 81.6734L284.842 81.5874C284.871 81.5874 284.9 81.5874 284.9 81.6018C284.971 81.6161 285.129 81.6304 285.458 81.5874C285.702 81.5588 285.587 81.5445 285.587 81.5015C285.559 81.4585 285.501 81.4155 285.401 81.3582C285.301 81.3009 285.172 81.2293 285.014 81.1576L283.668 80.6562C283.223 80.4986 282.722 80.341 282.335 80.2121L280.372 79.5531L282.292 78.937C282.607 78.8367 282.607 78.8367 282.736 78.8081C282.837 78.7937 282.937 78.7651 283.023 78.7508C283.195 78.7221 283.309 78.7078 283.338 78.6935C283.639 78.2207 279.885 76.7594 280.129 76.917L280.63 75.5703C280.63 75.5703 281.117 75.6992 282.12 76.172C282.364 76.2866 282.65 76.4299 282.966 76.6018C283.138 76.7021 283.238 76.7594 283.496 76.917C283.739 77.0745 283.983 77.2321 284.226 77.4184C284.728 77.7766 285.215 78.2064 285.731 78.6648C285.989 78.9084 286.275 79.1662 286.547 79.4241C286.59 79.4814 286.748 79.596 286.719 79.596C286.719 79.6247 286.719 79.639 286.719 79.682C286.734 79.7393 286.762 79.8396 286.848 79.9685C286.819 79.8969 286.905 79.9399 286.905 79.9972C286.705 79.9972 286.347 79.9972 285.86 79.9829C285.372 79.9829 284.728 79.9542 284.183 79.9972C283.911 80.0258 283.639 80.0688 283.381 80.1261C283.109 80.1834 282.865 80.2694 282.751 80.3124L282.708 78.7794C283.295 78.9084 284.269 79.1519 285.358 79.4384C286.304 79.7107 287.292 79.9972 288.266 80.2694C289.413 80.5703 290.1 80.8711 290.903 81.1576L291.948 81.5445L292.206 81.6447C292.235 81.6591 292.335 81.6734 292.307 81.6877L292.178 81.745L291.662 81.9456C290.831 82.2751 289.914 82.619 288.883 82.9915C287.851 83.3496 286.533 83.7078 285.315 83.9084C283.911 84.1376 282.665 84.1662 281.834 84.1233L281.576 82.1748C284.341 81.6877 286.633 81.5015 288.223 81.4155C289.814 81.3296 290.716 81.3439 290.716 81.3439L290.86 82.7479Z" fill="#E20950"/>
<path d="M282.693 74.6676C282.693 74.6676 282.779 77.9914 282.794 78.3066C282.679 79.3811 282.564 80.6418 282.421 81.9885C282.292 83.3209 281.991 84.639 281.633 85.9427L277.493 85.7564C277.679 84.2951 277.908 82.8052 278.009 81.3295C278.095 80.1117 277.851 78.3209 277.564 76.8309C277.278 75.341 276.963 74.1662 276.963 74.1662L279.828 73.8653C279.828 73.8653 280.215 75.6132 280.645 77.8195C281.075 80.0258 281.519 82.6905 281.791 84.4814L281.934 85.4556C281.948 85.5272 281.948 85.5989 281.963 85.6848L277.206 85.4699C277.307 81.8596 279.828 74.3668 279.828 74.3668L282.693 74.6676Z" fill="#E20950"/>
</svg>
