<?xml version="1.0" encoding="utf-8"?>
<!-- Generator: Adobe Illustrator 21.0.2, SVG Export Plug-In . SVG Version: 6.00 Build 0)  -->
<svg version="1.1" id="Layer_1" xmlns="http://www.w3.org/2000/svg" xmlns:xlink="http://www.w3.org/1999/xlink" x="0px" y="0px"
	 viewBox="0 0 75 75" style="enable-background:new 0 0 75 75;" xml:space="preserve">
<style type="text/css">
	.st0{fill:#010101;}
	.st1{fill:#D8D9D8;}
</style>
<g>
	<path class="st0" d="M39.3,47.4h6.2v9.2c-0.7,0.7-1.5,1.2-2.5,1.5c-0.9,0.3-1.9,0.5-2.8,0.5c-1.1,0-2.1-0.2-3.1-0.6
		c-0.9-0.4-1.7-1.1-2.3-1.9c-0.6-0.9-1.1-2-1.5-3.3c-0.4-1.3-0.5-3-0.5-4.9c0-2,0.2-3.6,0.6-5c0.4-1.4,1-2.5,1.7-3.3
		c0.7-0.9,1.5-1.5,2.4-1.9c0.9-0.4,1.9-0.6,2.9-0.6c0.9,0,1.8,0.1,2.5,0.3c0.8,0.2,1.4,0.4,1.9,0.6l-0.7,3.2
		c-0.4-0.2-0.8-0.3-1.3-0.4c-0.5-0.1-1.1-0.2-1.8-0.2c-0.7,0-1.3,0.1-1.8,0.4c-0.5,0.3-1,0.7-1.4,1.3c-0.4,0.6-0.7,1.4-0.9,2.3
		c-0.2,0.9-0.3,2.1-0.3,3.4c0,2.5,0.4,4.3,1.1,5.5c0.7,1.2,1.7,1.8,2.9,1.8c0.4,0,0.7-0.1,1.1-0.2c0.4-0.1,0.7-0.3,0.9-0.6v-4.3
		l-3.3-0.5V47.4z"/>
	<path class="st0" d="M61.4,58.1H50.8V37.4h3.6v17.2h7.1V58.1z"/>
	<path class="st0" d="M75,40.9h-4.8v17.2h-3.6V40.9h-4.8v-3.4H75V40.9z"/>
</g>
<g>
	<polygon class="st1" points="32.8,28.6 0.8,45.4 0,34.2 32,17.4 	"/>
</g>
<g>
	<polygon class="st1" points="50.3,27.7 40.9,32.8 40.1,21.6 49.5,16.4 	"/>
</g>
<g>
	<g>
		<path class="st0" d="M32.3,26.5C22.5,30.8,12.8,35.1,3,39.4c0.7,0.2,1.4,0.5,2.1,0.7c0-1.8,0-3.7,0-5.5c0-0.8,0.4-2.7,0-3.5
			c-0.4-1,0.5-1.2-0.7-0.2c2.1-1.7,5.8-2.6,8.3-3.6c7-3.1,13.9-6.1,20.9-9.2c-0.7-0.2-1.4-0.5-2.1-0.7c0,3.3,0,6.7,0,10
			c0,1.5,2.9,1,2.9-0.2c0-3.3,0-6.7,0-10c0-1.1-1.4-1-2.1-0.7C22.5,20.8,12.8,25.1,3,29.4c-0.3,0.1-0.8,0.5-0.8,0.9
			c0,3.3,0,6.7,0,10c0,1.1,1.4,1,2.1,0.7c9.8-4.3,19.5-8.6,29.3-12.8C35.4,27.3,33.7,25.9,32.3,26.5z"/>
	</g>
</g>
<g>
	<g>
		<path class="st0" d="M47.1,26.2c-2.9,1.3-5.7,2.6-8.6,4c0.7,0,1.3,0.1,2,0.1c0-3.3,0-6.7,0-10c-0.3,0.3-0.6,0.6-0.9,0.9
			c2.9-1.3,5.7-2.6,8.6-4c-0.7,0-1.3-0.1-2-0.1c0,3.3,0,6.7,0,10c0,0.7,2.9,0.2,2.9-0.8c0-3.3,0-6.7,0-10c0-0.6-1.8-0.2-2-0.1
			c-2.9,1.3-5.7,2.6-8.6,4c-0.4,0.2-0.9,0.4-0.9,0.9c0,3.3,0,6.7,0,10c0,0.6,1.8,0.2,2,0.1c2.9-1.3,5.7-2.6,8.6-4
			C50,26.3,48.3,25.6,47.1,26.2z"/>
	</g>
</g>
</svg>
