<?xml version="1.0" encoding="utf-8"?>
<!-- Generator: Adobe Illustrator 21.0.2, SVG Export Plug-In . SVG Version: 6.00 Build 0)  -->
<svg version="1.1" id="Layer_1" xmlns="http://www.w3.org/2000/svg" xmlns:xlink="http://www.w3.org/1999/xlink" x="0px" y="0px"
	 viewBox="0 0 75 75" style="enable-background:new 0 0 75 75;" xml:space="preserve">
<style type="text/css">
	.st0{fill:#D8D9D8;}
	.st1{fill:#231F20;}
</style>
<path class="st0" d="M0.8,30.5c3-18.7,22.5-32.6,41.2-29.3c9,0.9,16.9,6,23,12.4c-3.4,2.9-6.9,5.7-10.6,8.2
	c-7.4-6.9-18.9-10.2-28.1-4.8c-13,6.5-16.3,25.7-6.2,36.1c9.6,11.6,31.2,9.6,36.4-5.3c-6.9-1.1-13.8-2-20.7-3.2
	c0.6-4.1,1.1-8.3,1.8-12.4c11.6,1.6,23.1,3.3,34.7,5c-0.7,9.8-3.5,20-10.6,27.1c-10.9,11.4-29.5,12.5-42.9,5
	C5.3,62.1-2.6,45.6,0.8,30.5z"/>
<path class="st1" d="M74.9,31.8c0-0.4-0.6-0.5-0.9-0.5c-11.2-0.1-22.3-0.1-33.5,0c-0.5,0-2,0.3-2,1c0,4,0,8,0,11.9
	c0,0.5,0.4,0.7,0.9,0.7c0.6,0,1.3,0,1.9,0v-3.8h0c0-2.7,0-5.4,0-8.2c6.2,0,12.3,0,18.5,0c3,0,6.3-0.4,9.3,0c3,0.4,3,0.4,3,4
	c0,1.3-0.1,2.6-0.2,4c-1,12.3-7.3,23.4-19.1,28C30.2,78,5.2,59.5,6.5,35.3C7,21.6,16.3,8.9,29.4,4.6c7.5-2.5,16.1-2,23.4,1.2
	c1.8,0.8,7.4,2.9,8.2,4.9c0.7,1.8-4,5.9-6.4,8.1c-9.7-5.8-21.6-6-30.4,1.8c-7.6,6.8-9.3,18.8-4.6,27.8c8.9,16.9,37.4,15.4,41.9-4.1
	c0.1-0.5-0.5-0.7-0.9-0.7c-5.5-0.1-10.9-0.1-16.4-0.1v1.8c4.7,0.1,9.5,0.1,14.2,0.1c-4.7,17.4-29.3,16.6-36.5,1.3
	c-3.2-6.8-2.7-15.2,1.4-21.5c6.9-10.7,20.3-10.6,30.1-4.2c0.6,0.4,1.8,0,2.3-0.4c3.1-2.9,6-6,8.9-9.2c0.3-0.4,0.4-0.7,0-1
	C53.1,1.3,38.2-1.7,24.8,4.6c-12.1,5.7-20.6,17.6-21.2,31C2.5,56.8,20.5,73.9,41.4,73.1c9-0.4,18-3.8,24.3-10.4
	C73.7,54.4,75.5,43,74.9,31.8z"/>
</svg>
