<?xml version="1.0" encoding="utf-8"?>
<!-- Generator: Adobe Illustrator 21.0.2, SVG Export Plug-In . SVG Version: 6.00 Build 0)  -->
<svg version="1.1" id="Layer_1" xmlns="http://www.w3.org/2000/svg" xmlns:xlink="http://www.w3.org/1999/xlink" x="0px" y="0px"
	 viewBox="0 0 75 75" style="enable-background:new 0 0 75 75;" xml:space="preserve">
<style type="text/css">
	.st0{fill:#D8D9D8;}
	.st1{fill:#231F20;}
</style>
<g>
	<path class="st0" d="M59,45.4l0.3-2.3l14.6,2l-0.3,2.3L59,45.4z"/>
</g>
<g>
	<path class="st0" d="M8.8,69.6L8,75l-2.7-0.4L6,69.2l-5.4-0.7L1,65.7l5.4,0.7l0.7-5.4l2.7,0.4l-0.7,5.4l5.4,0.7l-0.4,2.7L8.8,69.6z
		"/>
</g>
<polygon class="st0" points="32.6,2.3 29.7,14.9 43.7,11.5 "/>
<path class="st1" d="M62.6,14.6V0h9.3v2h-7.1v4.3h6.1v2h-6.1v4.4h7.1v2H62.6z"/>
<path class="st1" d="M70,74.5l-3.1-6.1h-2.8v6.1h-2.2V59.9h5.6c2.8,0,4.5,1.8,4.5,4.3c0,2.1-1.3,3.4-2.9,3.9l3.4,6.4H70z M67.4,61.9
	h-3.3v4.6h3.3c1.5,0,2.5-0.8,2.5-2.3C69.9,62.7,68.9,61.9,67.4,61.9z"/>
<path class="st1" d="M2.9,14.6v-1.9L9.6,2H3.2V0h9v1.8L5.5,12.6h6.8v2H2.9z"/>
<path class="st1" d="M8,38.7H4.7v5.7H2.5V29.9H8c2.8,0,4.7,1.9,4.7,4.4C12.7,36.9,10.9,38.7,8,38.7z M7.9,31.9H4.7v4.8h3.2
	c1.5,0,2.6-0.9,2.6-2.4C10.5,32.8,9.4,31.9,7.9,31.9z"/>
<path class="st1" d="M40.4,44.5v-6.4h-5.9v6.4h-2.2V30h2.2v6.2h5.9V30h2.2v14.6H40.4z"/>
<path class="st1" d="M38.5,68.5v6h-2.2v-6l-4.4-8.6h2.4l3,6.4l3-6.4h2.4L38.5,68.5z"/>
<g>
	<path class="st1" d="M31.7,3c0,3.1,0,6.1,0,9.2c0,0.5,1.7,0,1.8-0.1c3.1-1.5,6.1-3.1,9.2-4.6c0.1,0,0.7-0.4,0.4-0.6
		C40,5.3,37,3.8,33.9,2.3C33.3,2,31.4,2.9,31.7,3c3.1,1.6,6.2,3.2,9.2,4.7c0.1-0.2,0.3-0.4,0.4-0.6c-3.1,1.5-6.1,3.1-9.2,4.6
		c0.6,0,1.2-0.1,1.8-0.1c0-3.1,0-6.1,0-9.2C34,1.9,31.7,2.3,31.7,3z"/>
</g>
<g>
	<path class="st1" d="M60.4,44.9c3.9,0,7.8,0,11.7,0c0.6,0,3.3-1.1,1.9-1.1c-3.9,0-7.8,0-11.7,0C61.8,43.8,59.1,44.9,60.4,44.9
		L60.4,44.9z"/>
</g>
<g>
	<path class="st1" d="M6.1,62.5c0,3.2,0,6.4,0,9.6c0,1.2,2.9,0.6,2.9-0.3c0-3.2,0-6.4,0-9.6C9,61,6.1,61.6,6.1,62.5L6.1,62.5z"/>
</g>
<g>
	<path class="st1" d="M2.1,67.8c3.2,0,6.3,0,9.5,0c0.9,0,3.1-1.3,1.2-1.3c-3.2,0-6.3,0-9.5,0C2.5,66.5,0.2,67.8,2.1,67.8L2.1,67.8z"
		/>
</g>
</svg>
