<?xml version="1.0" encoding="utf-8"?>
<!-- Generator: Adobe Illustrator 21.0.2, SVG Export Plug-In . SVG Version: 6.00 Build 0)  -->
<svg version="1.1" id="Layer_1" xmlns="http://www.w3.org/2000/svg" xmlns:xlink="http://www.w3.org/1999/xlink" x="0px" y="0px"
	 viewBox="0 0 75 75" style="enable-background:new 0 0 75 75;" xml:space="preserve">
<style type="text/css">
	.st0{fill:#D8D9D8;}
	.st1{fill:#231F20;}
</style>
<polygon class="st0" points="30.6,59 17.2,58.4 46.6,21.3 60.1,21.9 "/>
<path class="st1" d="M57.8,18.2c-2.8,0-5.5,0-8.3,0c-1.6,0-4.4-0.5-5.9,0.3c-2.7,1.5-5,6.5-6.7,8.9c-6.9,9.4-13.7,18.9-20.6,28.3
	c-0.4,0.5,0.3,1,0.8,1c4.3,0,8.6,0,12.9,0c0.3,0,0.6-0.1,0.9-0.3c0.4-0.1,0.7-0.3,0.9-0.5c0.2-0.3,0.5-0.7,0.7-1h-2.8c0,0,0,0,0,0
	c-3.4,0-6.8,0-10.1,0c8.5-11.7,16.9-23.3,25.4-35c3.4,0,6.8,0,10.1,0c-8.1,11.2-15.8,21.7-23.9,32.9h2.8
	c8.3-11.4,16.2-22.3,24.5-33.7C59,18.7,58.3,18.2,57.8,18.2z"/>
<path class="st1" d="M64.5,10.3c-17.7,0-35.3,0-53,0c-0.6,0-2,0.3-2,1.1c0,17.7,0,35.3,0,53c0,0.3,0.7,0.4,0.8,0.4
	c16.9,0,32.7,0,49.6,0v-1.5c-14.3,0-27.5,0-41.8,0c-1.4,0-4.3,0.5-6,0.2c0-0.1,0-0.3,0.1-0.6c0.2-1.1,0-2.4,0-3.5c0-9,0-18,0-27
	c0-6.9,0-13.7,0-20.6c14.8,0,29.5,0,44.3,0c1.4,0,4.3-0.5,6-0.2c0,0.1,0,0.3-0.1,0.6c-0.2,1.1,0,2.4,0,3.5c0,9,0,18,0,27
	c0,6.7,0,13.4,0,20.1h0v2c0.2,0,0.4,0,0.6,0c0.8,0.1,2.2-0.4,2.2-1.1c0-17.7,0-35.3,0-53C65.4,10.3,64.7,10.3,64.5,10.3z"/>
<path class="st1" d="M74.1,0.6c-24.1,0-48.1,0-72.2,0C1.3,0.6,0,0.9,0,1.8C0,25.8,0,49.9,0,74c0,0.3,0.6,0.4,0.9,0.4
	c23.3,0,45.3,0,68.5,0v-1.6c-19.9,0-38.5,0-58.4,0c-2,0-6,0.8-8.3,0.2c0-0.1-0.1-0.4,0.1-0.8c0.4-1.3,0-3.6,0-5
	c0-12.3,0-24.5,0-36.8c0-9.4,0-18.8,0-28.3c20.4,0,40.8,0,61.2,0c2,0,6-0.8,8.3-0.2c0,0.1,0.1,0.4-0.1,0.8c-0.4,1.3,0,3.6,0,5
	c0,12.3,0,24.5,0,36.8c0,9.4,0,18.8,0,28.3c0,0,0,0,0,0v1.6c0.2,0,0.4,0,0.6,0c0.8,0.1,2.2-0.4,2.2-1.2c0-24.1,0-48.1,0-72.2
	C75,0.7,74.4,0.6,74.1,0.6z"/>
</svg>
