<?xml version="1.0" encoding="utf-8"?>
<!-- Generator: Adobe Illustrator 21.0.2, SVG Export Plug-In . SVG Version: 6.00 Build 0)  -->
<svg version="1.1" id="Layer_1" xmlns="http://www.w3.org/2000/svg" xmlns:xlink="http://www.w3.org/1999/xlink" x="0px" y="0px"
	 viewBox="0 0 75 75" style="enable-background:new 0 0 75 75;" xml:space="preserve">
<style type="text/css">
	.st0{fill-rule:evenodd;clip-rule:evenodd;fill:#D8D9D8;}
	.st1{fill:#231F20;}
</style>
<path class="st0" d="M65.8,41.7c3.3-0.1,6.4,1,9.2,2.7c-4.2,4.4-8.5,8.8-13.3,12.7c-4,3.3-9.4,3.9-14.3,3.5
	C41.6,60,35.9,58.1,30.9,55c4.1,1.1,8.6,0.3,12.4-1.6c5.8-2.7,10.4-7.4,16.3-10C61.5,42.5,63.6,41.7,65.8,41.7z"/>
<g>
	<path class="st1" d="M2.2,25C-4.1,41.3,3.5,60.4,20,66.9c13.5,5.3,29.5,1,38.7-10.2c0.7-0.9-1.6-0.6-1.8-0.5
		C45.5,61,32.4,58.1,23,50.5c-3.8-3.1-7-7.1-9-11.6c-2.1-4.7-3.6-13.4,2.4-16.3c0.3-0.2,0.9-0.7,0.3-1c-5.2-1.7-11.2-1.9-14.4,3.3
		c-0.6,1,2.2,0.6,2.6-0.1c1.8-2.9,6.6-2.9,9.5-1.9c0.1-0.3,0.2-0.6,0.3-1c-5.2,2.4-6.2,8.9-4.9,14c1.7,6.6,6.3,12.5,11.7,16.5
		c10.5,7.9,24.4,9.9,36.5,4.8c-0.6-0.2-1.2-0.3-1.8-0.5c-10.2,12.3-28.3,14.6-41,4.8C3.7,52.8,0,37.8,5,24.6
		C5.3,23.9,2.5,24.2,2.2,25z"/>
</g>
<g>
	<path class="st1" d="M63.8,25.5C48,28,45.7,53.2,28,50.3c-0.6-0.1-3.3,0.7-2,1.5c4.4,2.8,7.1,4.6,12.4,3.5c4.3-0.9,7.9-3.3,11.2-6
		c2.1-1.7,4-3.6,6.1-5.3c1.5-1.2,3.1-2.4,4.9-3.3c1.3-0.6,2.9-0.8,4.1-1.5c3.8-2.4,7-8.8,9.6-12.3c0.3-0.4-0.1-0.8-0.5-0.9
		C70.4,25.5,67.2,25.3,63.8,25.5c-1.4,0.1-2.3,1.8-0.4,1.7c1.7-0.2,3.5-0.2,5.2,0c2.1,0.5,2.4,1.3,0.7,2.6c-0.5,1.8-3.2,4.5-4.4,5.9
		c-2.5,2.8-5.7,3.6-8.7,5.6c-3.2,2.2-5.9,5-8.9,7.5c-2.9,2.4-6.5,5-10.4,5.2c-3.5,0.1-5.9-1.8-8.7-3.6c-0.7,0.5-1.3,1-2,1.5
		c5.7,0.9,11.3,0.5,15.7-3.7c2.9-2.7,5.4-6,8-9.1c3.6-4.3,7.5-11,13.6-12C64.9,26.9,65.8,25.2,63.8,25.5z"/>
</g>
<g>
	<path class="st1" d="M63.4,39.2c1.5-0.1,6.8-0.6,7,2.5c0,0.8-2.1,2.8-2.6,3.4c-2.2,2.8-4.4,5.8-7.1,8.3c-7,6.5-18.1,4.5-26,1
		c-0.8,0.3-1.5,0.7-2.3,1c4.5,0.3,8.6-0.7,12.5-3c6.4-3.7,11.3-11.7,18.8-13.2c1.1-0.2,2.5-1.4,0.5-1c-11.4,2.4-17.7,16.9-30,16.1
		c-0.3,0-2.8,0.8-2.3,1c7.5,3.3,16.3,4.6,24.2,2c8.1-2.6,13.1-11,18-17.5c0-0.1,0-0.2-0.1-0.2C71,38.3,68,37.7,64.6,38
		C63.9,38.1,61.5,39.3,63.4,39.2z"/>
</g>
<g>
	<path class="st1" d="M73.7,4.8c-2.2-0.4-4.2-0.5-6.5-0.5c0,0,0,0,0,0c-0.1,0-0.2,0-0.3,0c-5.4,0.6-10.6,2.6-14,6.8
		c0,0-2.4,3.2-3.1,4.8c-0.7,1.5-1.7,3.1-2.5,4.6c-1.9,3.6-3.8,7.2-5.7,10.7c-3.9,7-8.1,15.9-16.7,17.1c-1.3,0.2-2.4,1.7-0.4,1.5
		c3.4-0.3,6.5-0.5,9.4-2.6c3.9-2.8,6.8-7.2,9.3-11.1c3-4.6,5.7-9.4,8.5-14.1c4.1-6.8,7.8-12.4,16.4-12.4c-1.8,3.1-3.5,6.2-5.3,9.4
		c-0.6,1.2,2.2,0.7,2.6,0c2.9-4.5,5.8-9,8.6-13.5C74.4,5.1,74.1,4.9,73.7,4.8z M59,10.2c-4.1,2.1-6.3,5.7-8.7,9.5
		c-0.3,0.5-0.6,0.9-0.8,1.4c1.5-2.8,3-5.5,4.6-8.2c0,0,0-0.1,0-0.1c0,0,0.1,0,0.1-0.1c2.8-4.3,7-6.3,12-6.9c2.6,0,4.6-0.5,3.5,2.3
		C66,7.9,62.4,8.5,59,10.2z"/>
	<path class="st1" d="M48.8,11.8l1.6-2.2C35.1,0.7,15.5,5,5,19.8c-0.6,0.9,1.1,0.8,1.5,0.7c2.5-0.8,5-0.1,7.3-1.3
		c0.6-0.3,3.1-3.3,3.2-3.4c1.4-1.3,3-2.5,4.7-3.6C29,7.8,41.5,6.3,48.8,11.8z M12,18.2c-1.2,0-2.3,0.1-3.4,0.3C16,9.2,27,5.1,37.7,7
		C28.2,6.7,18.8,10.6,12,18.2z"/>
</g>
</svg>
