<?xml version="1.0" encoding="utf-8"?>
<!-- Generator: Adobe Illustrator 21.0.2, SVG Export Plug-In . SVG Version: 6.00 Build 0)  -->
<svg version="1.1" id="Layer_1" xmlns="http://www.w3.org/2000/svg" xmlns:xlink="http://www.w3.org/1999/xlink" x="0px" y="0px"
	 viewBox="0 0 202 116" style="enable-background:new 0 0 202 116;" xml:space="preserve">
<style type="text/css">
	.st0{fill:#FDF38B;enable-background:new    ;}
</style>
<g>
	<polygon points="25.2,36.8 18.2,16.5 12,17.1 12,57.3 18.3,56.7 18.3,34.1 23.3,49.4 26.8,49.1 31.8,33 31.8,55.5 38.1,55 
		38.1,14.8 31.9,15.3 	"/>
	<polygon points="62.2,52.9 62.2,12.7 55.9,13.2 55.9,30.1 49.7,30.6 49.7,13.8 43.4,14.3 43.4,54.5 49.7,54 49.7,36.7 55.9,36.1 
		55.9,53.4 	"/>
	<path d="M69.9,50.1c1.6,1.4,3.6,2.1,5.9,2.1c0.3,0,0.7,0,1,0c2.7-0.2,5.1-1.4,6.8-3.2c2.7-2.9,2.9-5.9,2.9-8.9V21.4
		c0-3.1-0.2-6-2.9-8.5c-1.8-1.6-4.2-2.3-6.9-2.1c-2.7,0.2-5.1,1.4-6.8,3.2C67.2,17,67,20,67,23v18.6C67,44.7,67.2,47.6,69.9,50.1z
		 M73.3,42V21.7c0-1.1,0.1-2.1,1-3.2c0.3-0.4,1.1-1.1,2.5-1.2c0.1,0,0.3,0,0.4,0c1.1,0,1.8,0.5,2.1,0.7c0.9,0.9,1,1.9,1,3v20.3
		c0,1.1-0.1,2.1-1,3.2c-0.3,0.4-1.1,1.1-2.5,1.2c-1.4,0.1-2.1-0.4-2.5-0.7C73.4,44.1,73.3,43.1,73.3,42z"/>
	<polygon points="97.7,15.9 108.5,14.9 108.5,8.6 91.4,10.1 91.4,50.3 97.7,49.8 	"/>
	<path d="M111.8,46.4c1.6,1.4,3.6,2.1,5.9,2.1c0.3,0,0.7,0,1,0c2.7-0.2,5.1-1.4,6.8-3.2c2.7-2.9,2.9-5.9,2.9-8.9V17.7
		c0-3.1-0.2-6-2.9-8.5c-1.8-1.6-4.2-2.3-6.9-2.1c-2.7,0.2-5.1,1.4-6.8,3.2c-2.7,2.9-2.9,5.9-2.9,8.9v18.6
		C108.9,41,109.1,44,111.8,46.4z M115.2,38.3V18c0-1.1,0.1-2.1,1-3.2c0.3-0.4,1.1-1.1,2.5-1.2c0.1,0,0.3,0,0.4,0
		c1.1,0,1.8,0.5,2.1,0.7c0.9,0.9,1,1.9,1,3v20.3c0,1.1-0.1,2.1-1,3.2c-0.3,0.4-1.1,1.1-2.5,1.2c-1.4,0.1-2.1-0.4-2.5-0.7
		C115.3,40.4,115.2,39.4,115.2,38.3z"/>
	<path d="M68.6,88.2c0,1.3-0.2,2.3-0.7,3c-0.5,0.8-1.5,1.3-2.6,1.4c-1.3,0.1-2-0.6-2.3-1c-0.6-0.8-0.6-1.9-0.6-3.1V69.2
		c0-1.3,0.1-2.6,0.8-3.6c0.6-0.8,1.4-1.2,2.4-1.3c1.3-0.1,2,0.5,2.3,0.9c0.4,0.6,0.6,1.5,0.6,2.2v2.8l6.1-0.5v-3.1
		c0-2.6-0.9-5.1-2.5-6.7c-1.6-1.5-4.3-2.3-6.8-2.1c-1.8,0.2-4.5,1-6.4,3c-2.5,2.5-2.8,5.6-2.8,8.3v20.5c0,2,0,4.8,2,7.1
		c1.5,1.7,3.5,2.6,6.1,2.6c0.3,0,0.7,0,1,0c4.2-0.4,6.4-2.3,7.3-3.4c0.9-1.1,2.3-3.4,2.3-7.7v-2.2l-6.3,0.6V88.2z"/>
	<path d="M97.2,55.5l-15.4,1.3v3.3c0,4.6-0.1,15.9-1.1,22c-0.5,3.2-1.3,6.2-2.6,9.2l-2.6,0.2v12.1l6-0.5v-6L94.2,96v6l6-0.5V89.4
		l-3,0.3V55.5z M90.9,62.1v28.4l-6.3,0.5c0.9-2.4,1.5-4.6,2-7.4c0.8-4.8,1.2-10.9,1.2-18.6v-2.6L90.9,62.1z"/>
	<polygon points="108.9,77.4 118.2,76.6 118.2,70.5 108.9,71.3 108.9,60.8 119.4,59.9 119.4,53.6 102.6,55 102.6,95.2 119.5,93.8 
		119.5,87.4 108.9,88.4 	"/>
	<path d="M126.1,64c0,4.4-0.2,6.9-0.3,9.5l-0.1,1.1c-0.2,3.4-0.6,8-1,9.6c-0.1,0.3-0.5,1.6-1.7,2.5c-0.7,0.5-1.3,0.6-1.8,0.6l-1,0.1
		v6.3l1.8-0.2c2.1-0.2,4.4-0.7,6.5-3.4c1.8-2.2,2.3-4.3,2.6-6.1c0.3-1.7,0.6-4.2,0.8-7.4c0.2-2.3,0.2-4.7,0.3-8.7l0.3-9.5l3.3-0.3
		v34.2l6.3-0.6V51.6L126.2,53L126.1,64z"/>
	<path d="M171.7,60c0,4.5-0.2,6.9-0.3,9.6l-0.1,1c0,0.8-0.4,7.4-1,9.6c-0.1,0.3-0.5,1.6-1.7,2.5c-0.7,0.5-1.3,0.6-1.8,0.6l-1,0.1
		v1.5l-7.3-34.7l-5.5,0.5l-8.3,40.9L151,91l1.7-8.6l6-0.5l1.7,8.2l5.3-0.5v0l0.2,0l0.8-0.1l0,0l0.8-0.1c2.1-0.2,4.4-0.7,6.5-3.4
		c1.8-2.2,2.3-4.3,2.6-6.1c0.3-1.7,0.6-4.2,0.8-7.4c0.2-2.3,0.2-4.7,0.3-8.7l0.3-9.5l3.3-0.3v34.2l6.3-0.6V47.6L171.9,49L171.7,60z
		 M157.9,76l-4.4,0.4l2.2-11.9L157.9,76z"/>
	<polygon points="192.4,87.4 199.2,86.8 199.2,79.6 192.4,80.2 	"/>
	<polygon points="198.4,77.1 199.6,46.6 192.2,47.2 193.2,77.5 	"/>
</g>
<polygon class="st0" points="37,116 0,109.7 0,71.8 37,71.8 "/>
<polygon class="st0" points="166.5,31.7 137.5,37.8 137.5,0 166.5,0 "/>
</svg>
