<?xml version="1.0" encoding="UTF-8"?>
<svg width="63px" height="66px" viewBox="0 0 63 66" version="1.1" xmlns="http://www.w3.org/2000/svg" xmlns:xlink="http://www.w3.org/1999/xlink">
    <!-- Generator: Sketch 52.5 (67469) - http://www.bohemiancoding.com/sketch -->
    <title>Group 22</title>
    <desc>Created with Sketch.</desc>
    <g id="21-фев" stroke="none" stroke-width="1" fill="none" fill-rule="evenodd">
        <g id="About-edit-0221" transform="translate(-1211.000000, -943.000000)">
            <g id="Group-22" transform="translate(1244.000000, 979.500000) rotate(11.000000) translate(-1244.000000, -979.500000) translate(1203.000000, 938.000000)">
                <path d="M33.6524987,55.7825295 C39.6902086,64.4366364 47.4373153,65.8503473 56.8938188,60.023662 C57.7310724,59.5077828 59.7460399,60.5704373 60.4745193,60.023662 C65.4741561,56.2710807 66.7989529,48.4736904 64.4489094,36.6314909" id="Path-11" stroke="#D8D8D8" stroke-width="11"></path>
                <g id="Group-13" transform="translate(41.000000, 41.500000) rotate(140.000000) translate(-41.000000, -41.500000) translate(13.000000, 12.000000)" stroke="#000000" stroke-width="2">
                    <g id="Group-12-Copy" transform="translate(36.500000, 29.500000) scale(-1, 1) rotate(-7.000000) translate(-36.500000, -29.500000) translate(21.000000, 2.000000)">
                        <g id="Group-11" transform="translate(15.500000, 27.500000) rotate(3.000000) translate(-15.500000, -27.500000) translate(2.000000, 1.000000)">
                            <path d="M20.245768,32.2078777 L20.245768,53 L25.2634796,53 M27,0.399227862 C10.553605,-1.54631388 2.16347962,3.61899456 1.82962382,15.8951532 C0.838401254,23.9108217 3.27225705,28.7710276 9.13119122,30.4757709 C3.04373041,45.1672106 -1.13686838e-13,52.5129305 -1.13686838e-13,52.5129305 C3.68652038,52.1900417 5.52978056,52.0285973 5.52978056,52.0285973 L15.4974922,32.2995453 L18.6024491,32.3440298" id="Path-9"></path>
                            <path d="M22.4545455,3.30284321 C14.6147231,1.81712856 10.7992517,5.79797532 11.0081312,15.2453835 C11.2170107,24.6927917 15.0324821,28.0781515 22.4545455,25.4014628 L22.4545455,6.05391" id="Path-10"></path>
                        </g>
                    </g>
                    <g id="Group-12-Copy-2" transform="translate(0.000000, 1.000000)">
                        <g id="Group-11" transform="translate(15.500000, 27.500000) rotate(3.000000) translate(-15.500000, -27.500000) translate(2.000000, 1.000000)">
                            <path d="M27,0.399227862 C10.553605,-1.54631388 2.16347962,3.61899456 1.82962382,15.8951532 C0.838401254,23.9108217 3.27225705,28.7710276 9.13119122,30.4757709 C3.04373041,45.1672106 -3.72146758e-13,52.5129305 -3.72146758e-13,52.5129305 C3.68652038,52.1900417 5.52978056,52.0285973 5.52978056,52.0285973 L15.4974922,32.2995453 L18.6024491,32.3440298 L20.245768,32.2078777 L20.245768,53 L25.2634796,53" id="Path-9"></path>
                            <path d="M22.5378959,3.39380426 C14.6980736,1.9080896 10.8826022,5.88893637 11.0914817,15.3363446 C11.3003612,24.7837527 15.1158326,28.1691125 22.5378959,25.4924238 L22.5378959,6.14487104" id="Path-10"></path>
                        </g>
                    </g>
                </g>
            </g>
        </g>
    </g>
</svg>