<svg xmlns="http://www.w3.org/2000/svg" xmlns:xlink="http://www.w3.org/1999/xlink" width="46" height="56" viewBox="0 0 46 56"><defs><path id="no92a" d="M911.53 982.515v16.555h3.995l1.383-41.882s-19.642-2.324-20.041 12.338c-.399 14.662-1.184 9.573 5.813 11.61 6.998 2.036-7.27 17.546-7.27 17.546l4.403-.386 7.936-15.708 2.473.035"/><path id="no92b" d="M912.246 984.208V1005h5.017L919 952.4s-24.67-2.92-25.17 15.495c-.501 18.414-1.487 12.024 7.301 14.58 8.789 2.558-9.131 22.038-9.131 22.038l5.53-.484 9.967-19.73 3.105.045"/><path id="no92c" d="M911.635 957.923s-11.76-2.229-11.447 11.942c.313 14.171 11.447 10.156 11.447 10.156v-19.347"/></defs><g><g transform="translate(-879 -951)"><g transform="rotate(3 905.5 979)"><g><use fill="#fff" fill-opacity="0" stroke="#d8d8d8" stroke-miterlimit="50" stroke-width="12" xlink:href="#no92a"/></g><g><use fill="#fff" fill-opacity="0" stroke="#000" stroke-miterlimit="50" stroke-width="2" xlink:href="#no92b"/></g><g><use fill="#fff" fill-opacity="0" stroke="#000" stroke-miterlimit="50" stroke-width="2" xlink:href="#no92c"/></g></g></g></g></svg>