<?xml version="1.0" encoding="utf-8"?>
<!-- Generator: Adobe Illustrator 21.0.2, SVG Export Plug-In . SVG Version: 6.00 Build 0)  -->
<svg version="1.1" id="Layer_1" xmlns="http://www.w3.org/2000/svg" xmlns:xlink="http://www.w3.org/1999/xlink" x="0px" y="0px"
	 viewBox="0 0 90 58" style="enable-background:new 0 0 90 58;" xml:space="preserve">
<g>
	<polygon points="8.2,32.6 20.8,32.6 20.8,24.8 8.2,24.8 8.2,10 22.5,10 22.5,1.8 0,1.8 0,56.2 22.7,56.2 22.7,48 8.2,48 	"/>
	<polygon points="48,33.1 36.7,1.8 28.7,1.8 28.7,56.2 36.9,56.2 36.9,24.9 48.2,56.2 56.3,56.2 56.3,1.8 48,1.8 	"/>
	<path d="M90,18v-2.6c0-5.9-2.4-9.3-3.8-10.8C84,2.3,80.6,1,76.8,1c-2.6,0-7.5,0.7-10.6,5.3c-2.3,3.3-2.5,6.7-2.5,10.1v27
		c0,4.1,0.9,7.2,2.7,9.6c2.1,2.7,4.8,4,8.4,4c1.5,0,3.8-0.1,5.9-1.4c1.3-0.7,2.4-1.7,3.2-3l1.6,3.6H90V26.1H75.6v7.8h6.2v6.7
		c0,1.8,0,4.3-1.2,6c-0.8,1.1-2.4,1.9-3.8,1.9c-1.5,0-2.8-0.6-3.7-1.7c-1.1-1.6-1.1-4-1.1-5.2V16.5c0-1.8,0-3.7,1.3-5.3
		c0.9-1.1,2.2-1.7,3.7-1.7c1.9,0,3,0.7,3.6,1.4c1.2,1.2,1.3,2.7,1.3,4V18H90z"/>
</g>
</svg>
