<svg width="120" height="120" viewBox="0 0 120 120" fill="none" xmlns="http://www.w3.org/2000/svg">
<path d="M44.1039 23.2403C44.1039 26.2644 44.1039 39.7619 44.1039 39.7619H31.9997V59.9646H44.1039V120H68.9686V59.9662H85.6539C85.6539 59.9662 87.2166 50.2792 87.974 39.6874C85.8023 39.6874 69.0626 39.6874 69.0626 39.6874C69.0626 39.6874 69.0626 27.9342 69.0626 25.8741C69.0626 23.8095 71.7736 21.0324 74.4531 21.0324C77.1275 21.0324 82.7722 21.0324 88.0003 21.0324C88.0003 18.2818 88.0003 8.77776 88.0003 0.00027473C81.0209 0.00027473 73.0807 0.00027473 69.5807 0.00027473C43.4893 -0.00112025 44.1039 20.2216 44.1039 23.2403Z" fill="black"/>
</svg>
