<svg version="1.1" id="Layer_1" xmlns="http://www.w3.org/2000/svg" xmlns:xlink="http://www.w3.org/1999/xlink" x="0px" y="0px"
	 viewBox="0 0 40 40" style="enable-background:new 0 0 40 40;" xml:space="preserve">
<style type="text/css">
	.st0{fill:#010101;}
</style>
<g>
	<path class="st0" d="M20.3,6.9l1.4-1.4h1.8l0.4,1.4l-1.8,1.5c1.4,2,2.2,3.5,2.2,4.4v0.7c0,4-1.9,7.7-5.7,11.3
		c-1.3,1.2-3.2,2.7-5.9,4.3L12,30.3c-0.6,1.1-1.2,2.1-1.8,2.9c-0.6,0.9-1,1.3-1.2,1.4l-0.8-0.7c1-1.9,1.5-3.5,1.5-4.8
		c-1.1-0.4-2-0.9-2.6-1.4C5.7,26.5,5,24.5,5,21.8c0-2.5,0.6-4.8,1.7-7.2c1.2-2.4,2.6-4.1,4.2-5c0.5-0.3,1.3-0.5,2.5-0.6
		C14.6,8.3,16.9,7.6,20.3,6.9z M7.9,20.4l-0.4,1.8c0.3,2.9,0.9,4.4,1.8,4.4h1.1c0.4,0,1.2-1.3,2.3-3.9c1.2-2.7,2.3-5.5,3.2-8.5
		c0.2-0.6,0.6-1.9,1.4-3.6h-1.5c-3.9,1.4-5.8,3.3-5.8,5.8C9.6,18.5,8.9,19.9,7.9,20.4z M14.5,24v0.8h0.4c2.1-1.4,3.7-2.7,4.6-3.8
		c1.8-2,2.6-4,2.6-6v-1.8l-1.5-1.4h-0.3C18.9,13.3,16.9,17.4,14.5,24z"/>
	<path class="st0" d="M26.6,22.9l0.3-0.3h0.5l0.4,0.1c0.9,0.3,1.4,0.5,1.4,0.8c0,0.2-0.6,0.5-1.7,0.7c0,0-0.2,0-0.5,0.1
		C26.8,23.9,26.6,23.4,26.6,22.9z M34.6,19.5l0.3,0.5c-0.1,0.6-1,2.3-2.8,4.9c-0.2,0.3-0.5,0.8-0.8,1.3L31,27.1
		c-0.3,0.9-0.7,1.6-1.1,2.2c-0.4,0.6-0.7,0.9-0.8,0.9h-0.2c-0.2,0-0.3-0.2-0.5-0.7l3.9-7.7c0.3-0.6,0.7-1.2,1.2-1.7
		C34,19.7,34.4,19.4,34.6,19.5z M32.7,28.5l0.5-0.7h0.3c0.5,0.3,0.8,0.7,0.8,1.2l-0.5,0.3h-0.2C33,29.3,32.7,29,32.7,28.5z"/>
</g>
</svg>
