<svg version="1.1" id="Layer_1" xmlns="http://www.w3.org/2000/svg" xmlns:xlink="http://www.w3.org/1999/xlink" x="0px" y="0px"
	 viewBox="0 0 40 40" style="enable-background:new 0 0 40 40;" xml:space="preserve">
<style type="text/css">
	.st0{fill:#010101;}
</style>
<g>
	<path class="st0" d="M13.9,11.5v0.4c-0.5,1.7-2.1,3.6-4.7,5.6l0.2,0.3c1.2,0.6,2.1,1.1,2.8,1.6c0.6,0.5,1.2,1.1,1.7,1.9
		c0.4,0.7,0.7,1.5,0.7,2.4v0.6c0.2,0,0.4,0.3,0.5,0.9c0.2,0.6,0.2,1.2,0.2,1.8c0,1.4-0.3,2.3-1,2.9s-1.8,0.9-3.5,1l-8.7-4.1l0.1-1.2
		c0-0.3,0.2-0.5,0.7-0.5h0.2l8.3,3.5l1.3,0.1l0.9-0.8v-0.3l0.1-0.9c0.1-2.1-0.7-3.9-2.6-5.4c-0.5-0.4-1.4-0.9-2.5-1.3
		c-0.8-0.1-1.4-0.3-1.8-0.6c-0.4-0.3-0.6-0.8-0.6-1.4v-0.3l5.6-4.9l0.1-1.2l-1-0.1h-0.3c-1.7,0-3.8,1-6.2,3.1l-0.5-0.1l0-0.6H3.6
		c2.3-3,4.8-4.5,7.5-4.5c0.9,0,1.5,0.2,2,0.6C13.6,10.2,13.9,10.7,13.9,11.5z"/>
	<path class="st0" d="M27.9,11.5v0.4c-0.5,1.7-2.1,3.6-4.7,5.6l0.2,0.3c1.2,0.6,2.1,1.1,2.8,1.6c0.6,0.5,1.2,1.1,1.7,1.9
		c0.4,0.7,0.7,1.5,0.7,2.4v0.6c0.2,0,0.4,0.3,0.5,0.9c0.2,0.6,0.2,1.2,0.2,1.8c0,1.4-0.3,2.3-1,2.9s-1.8,0.9-3.5,1l-8.7-4.1l0.1-1.2
		c0-0.3,0.2-0.5,0.7-0.5h0.2l8.3,3.5l1.3,0.1l0.9-0.8v-0.3l0.1-0.9c0.1-2.1-0.7-3.9-2.6-5.4c-0.5-0.4-1.4-0.9-2.5-1.3
		c-0.8-0.1-1.4-0.3-1.8-0.6c-0.4-0.3-0.6-0.8-0.6-1.4v-0.3l5.6-4.9l0.1-1.2l-1-0.1h-0.3c-1.7,0-3.8,1-6.2,3.1l-0.5-0.1l0-0.6h-0.2
		c2.3-3,4.8-4.5,7.5-4.5c0.9,0,1.5,0.2,2,0.6C27.6,10.2,27.9,10.7,27.9,11.5z"/>
	<path class="st0" d="M30.6,22.8l0.3-0.3h0.4l0.4,0.1c0.8,0.2,1.2,0.5,1.2,0.7c0,0.2-0.5,0.4-1.4,0.6c0,0-0.2,0-0.4,0.1
		C30.7,23.7,30.6,23.3,30.6,22.8z M37.5,19.8l0.3,0.4c-0.1,0.5-0.9,2-2.4,4.3c-0.2,0.3-0.4,0.7-0.7,1.1l-0.3,0.8
		c-0.3,0.8-0.6,1.4-0.9,2c-0.3,0.5-0.6,0.8-0.7,0.8h-0.1c-0.1,0-0.3-0.2-0.4-0.6l3.4-6.7c0.3-0.6,0.6-1.1,1-1.5
		C37,20,37.3,19.8,37.5,19.8z M35.8,27.7l0.4-0.6h0.3c0.5,0.3,0.7,0.6,0.7,1l-0.4,0.3h-0.1C36.1,28.4,35.9,28.1,35.8,27.7z"/>
</g>
</svg>
