<svg version="1.1" id="Layer_1" xmlns="http://www.w3.org/2000/svg" xmlns:xlink="http://www.w3.org/1999/xlink" x="0px" y="0px"
	 viewBox="0 0 40 40" style="enable-background:new 0 0 40 40;" xml:space="preserve">
<style type="text/css">
	.st0{fill:#010101;}
</style>
<g>
	<path class="st0" d="M9.1,10.8l1.6-0.6c1.6,0,3,0.8,4.1,2.5v0.9c-0.4,0.8-1.1,1.3-1.9,1.3c-0.4-1.5-1.2-2.2-2.2-2.2
		c-1.6,0-3.3,1.2-5,3.6c-0.7,1-1.4,2.3-2.3,4c-0.2,0.8-0.3,1.6-0.3,2.2c0,1.1,0.3,1.9,0.9,2.6c1.5-0.8,2.8-1.3,3.8-1.3h1.6
		c1.2,0,2.2,0.2,2.9,0.7c0.7,0.5,1.2,1.3,1.6,2.4c0,0.4-0.1,0.7-0.2,0.9c-0.3,0.6-0.9,1-1.8,1.4c-0.9,0.4-1.8,0.6-2.8,0.6H6.9
		L5,29.5l-1.7-0.8c-1.6-1.6-2.4-3.5-2.4-5.8c0-2.5,0.8-4.9,2.4-7.2C4.8,13.4,6.8,11.8,9.1,10.8z M8.5,26l-2.9,0.6v0.9l2.5,0.3
		l3.2-0.7V27c-0.3-0.6-0.9-0.9-1.9-0.9H8.5z"/>
	<path class="st0" d="M24.6,10.8l1.6-0.6c1.6,0,3,0.8,4.1,2.5v0.9c-0.4,0.8-1.1,1.3-1.9,1.3c-0.4-1.5-1.2-2.2-2.2-2.2
		c-1.6,0-3.3,1.2-5,3.6c-0.7,1-1.4,2.3-2.3,4c-0.2,0.8-0.3,1.6-0.3,2.2c0,1.1,0.3,1.9,0.9,2.6c1.5-0.8,2.8-1.3,3.8-1.3h1.6
		c1.2,0,2.2,0.2,2.9,0.7c0.7,0.5,1.2,1.3,1.6,2.4c0,0.4-0.1,0.7-0.2,0.9c-0.3,0.6-0.9,1-1.8,1.4c-0.9,0.4-1.8,0.6-2.8,0.6h-2.2
		l-1.9-0.3l-1.7-0.8c-1.6-1.6-2.4-3.5-2.4-5.8c0-2.5,0.8-4.9,2.4-7.2C20.3,13.4,22.3,11.8,24.6,10.8z M24,26l-2.9,0.6v0.9l2.5,0.3
		l3.2-0.7V27c-0.3-0.6-0.9-0.9-1.9-0.9H24z"/>
	<path class="st0" d="M31.8,22.8l0.3-0.3h0.4l0.4,0.1c0.8,0.2,1.2,0.5,1.2,0.7c0,0.2-0.5,0.4-1.4,0.6c0,0-0.2,0-0.4,0.1
		C32,23.7,31.8,23.3,31.8,22.8z M38.8,19.8l0.3,0.4c-0.1,0.5-0.9,2-2.4,4.3c-0.2,0.3-0.4,0.7-0.7,1.1l-0.3,0.8
		c-0.3,0.8-0.6,1.4-0.9,2c-0.3,0.5-0.6,0.8-0.7,0.8h-0.1c-0.1,0-0.3-0.2-0.4-0.6l3.4-6.7c0.3-0.6,0.6-1.1,1-1.5
		C38.3,20,38.6,19.8,38.8,19.8z M37.1,27.7l0.4-0.6h0.3c0.5,0.3,0.7,0.6,0.7,1l-0.4,0.3H38C37.4,28.4,37.1,28.1,37.1,27.7z"/>
</g>
</svg>
